<mxfile host="app.diagrams.net" modified="2024-05-23T19:12:16.292Z" agent="Mozilla/5.0 (Windows NT 10.0; Win64; x64) AppleWebKit/537.36 (KHTML, like Gecko) Chrome/124.0.0.0 Safari/537.36" etag="29oGKAeG_y9cH63OSGJn" version="24.4.6" type="github">
  <diagram name="PÃ¡gina-1" id="odFwpj1P_mLRmx9RzsQF">
    <mxGraphModel dx="2887" dy="945" grid="0" gridSize="10" guides="1" tooltips="1" connect="1" arrows="1" fold="1" page="0" pageScale="1" pageWidth="827" pageHeight="1169" math="0" shadow="0">
      <root>
        <mxCell id="0" />
        <mxCell id="1" parent="0" />
        <mxCell id="1v43-9IHqfWxljv2G6Mm-1" value="&lt;p style=&quot;margin:0px;margin-top:4px;text-align:center;&quot;&gt;&amp;lt;&amp;lt;Functional Requirements&amp;gt;&amp;gt;&lt;br&gt;&lt;b&gt;MyClinic Services&lt;/b&gt;&lt;/p&gt;&lt;hr&gt;&lt;p&gt;&lt;/p&gt;&lt;p style=&quot;margin:0px;margin-left:8px;text-align:left;&quot;&gt;&lt;br&gt;&lt;/p&gt;" style="shape=rect;overflow=fill;html=1;whiteSpace=wrap;align=center;" parent="1" vertex="1">
          <mxGeometry x="-336" y="127" width="200" height="60" as="geometry" />
        </mxCell>
        <mxCell id="1v43-9IHqfWxljv2G6Mm-2" value="MyClinic" style="shape=folder;fontStyle=1;spacingTop=10;tabWidth=40;tabHeight=14;tabPosition=left;html=1;whiteSpace=wrap;" parent="1" vertex="1">
          <mxGeometry x="400" y="10" width="70" height="50" as="geometry" />
        </mxCell>
        <mxCell id="1v43-9IHqfWxljv2G6Mm-4" value="&lt;p style=&quot;margin:0px;margin-top:4px;text-align:center;&quot;&gt;&amp;lt;&amp;lt;Non-Functional Requirements&amp;gt;&amp;gt;&lt;br&gt;&lt;b&gt;MyClinic NFR&lt;/b&gt;&lt;/p&gt;&lt;hr&gt;&lt;p&gt;&lt;/p&gt;&lt;p style=&quot;margin:0px;margin-left:8px;text-align:left;&quot;&gt;&lt;br&gt;&lt;/p&gt;" style="shape=rect;overflow=fill;html=1;whiteSpace=wrap;align=center;" parent="1" vertex="1">
          <mxGeometry x="795" y="127" width="200" height="60" as="geometry" />
        </mxCell>
        <mxCell id="1v43-9IHqfWxljv2G6Mm-43" value="&lt;p style=&quot;margin:0px;margin-top:4px;text-align:center;&quot;&gt;&amp;lt;&amp;lt;Func Req&amp;gt;&amp;gt;&lt;br&gt;&lt;b&gt;Basic Features&lt;/b&gt;&lt;/p&gt;&lt;hr&gt;&lt;p&gt;&lt;/p&gt;&lt;p style=&quot;margin:0px;margin-left:8px;text-align:left;&quot;&gt;&lt;br&gt;&lt;/p&gt;" style="shape=rect;overflow=fill;html=1;whiteSpace=wrap;align=center;" parent="1" vertex="1">
          <mxGeometry x="-896" y="258" width="200" height="60" as="geometry" />
        </mxCell>
        <mxCell id="1v43-9IHqfWxljv2G6Mm-44" value="&lt;p style=&quot;margin:0px;margin-top:4px;text-align:center;&quot;&gt;&amp;lt;&amp;lt;Func Req&amp;gt;&amp;gt;&lt;br&gt;&lt;b&gt;Existing Features&lt;/b&gt;&lt;/p&gt;&lt;hr&gt;&lt;p&gt;&lt;/p&gt;&lt;p style=&quot;margin:0px;margin-left:8px;text-align:left;&quot;&gt;&lt;br&gt;&lt;/p&gt;" style="shape=rect;overflow=fill;html=1;whiteSpace=wrap;align=center;" parent="1" vertex="1">
          <mxGeometry x="-336" y="258" width="200" height="60" as="geometry" />
        </mxCell>
        <mxCell id="1v43-9IHqfWxljv2G6Mm-45" value="&lt;p style=&quot;margin:0px;margin-top:4px;text-align:center;&quot;&gt;&amp;lt;&amp;lt;Func Req&amp;gt;&amp;gt;&lt;br&gt;&lt;b&gt;New Features&lt;/b&gt;&lt;/p&gt;&lt;hr&gt;&lt;p&gt;&lt;/p&gt;&lt;p style=&quot;margin:0px;margin-left:8px;text-align:left;&quot;&gt;&lt;br&gt;&lt;/p&gt;" style="shape=rect;overflow=fill;html=1;whiteSpace=wrap;align=center;" parent="1" vertex="1">
          <mxGeometry x="26" y="258" width="200" height="60" as="geometry" />
        </mxCell>
        <mxCell id="1v43-9IHqfWxljv2G6Mm-88" value="&lt;p style=&quot;margin:0px;margin-top:4px;text-align:center;&quot;&gt;&amp;lt;&amp;lt;requirement&amp;gt;&amp;gt;&lt;br&gt;&lt;b&gt;Development NFR&#39;s&lt;/b&gt;&lt;/p&gt;&lt;hr&gt;&lt;p&gt;&lt;/p&gt;&lt;p style=&quot;margin:0px;margin-left:8px;text-align:left;&quot;&gt;&lt;br&gt;&lt;/p&gt;" style="shape=rect;overflow=fill;html=1;whiteSpace=wrap;align=center;" parent="1" vertex="1">
          <mxGeometry x="447" y="303" width="200" height="60" as="geometry" />
        </mxCell>
        <mxCell id="1v43-9IHqfWxljv2G6Mm-90" value="" style="rounded=0;html=1;labelBackgroundColor=none;endArrow=none;edgeStyle=orthogonalEdgeStyle;elbow=vertical;startArrow=sysMLPackCont;startSize=12;exitX=0.5;exitY=1;exitDx=0;exitDy=0;exitPerimeter=0;" parent="1" source="1v43-9IHqfWxljv2G6Mm-2" target="1v43-9IHqfWxljv2G6Mm-1" edge="1">
          <mxGeometry relative="1" as="geometry">
            <mxPoint x="370" y="100" as="sourcePoint" />
            <mxPoint x="50" y="160" as="targetPoint" />
          </mxGeometry>
        </mxCell>
        <mxCell id="js9QWIpTAmIStjJIfFOv-7" value="&lt;p style=&quot;margin:0px;margin-top:4px;text-align:center;&quot;&gt;&amp;lt;&amp;lt;requirement&amp;gt;&amp;gt;&lt;br&gt;&lt;b&gt;Quality NFR&#39;s&lt;/b&gt;&lt;/p&gt;&lt;hr&gt;&lt;p&gt;&lt;/p&gt;&lt;p style=&quot;margin:0px;margin-left:8px;text-align:left;&quot;&gt;&lt;br&gt;&lt;/p&gt;" style="shape=rect;overflow=fill;html=1;whiteSpace=wrap;align=center;" parent="1" vertex="1">
          <mxGeometry x="1311" y="303" width="200" height="60" as="geometry" />
        </mxCell>
        <mxCell id="js9QWIpTAmIStjJIfFOv-44" value="" style="rounded=0;html=1;labelBackgroundColor=none;endArrow=none;edgeStyle=elbowEdgeStyle;elbow=vertical;startArrow=sysMLPackCont;startSize=12;entryX=0.5;entryY=0;entryDx=0;entryDy=0;exitX=0.5;exitY=1;exitDx=0;exitDy=0;" parent="1" source="jiixLFprqPIUBCIlmw_A-50" target="jiixLFprqPIUBCIlmw_A-56" edge="1">
          <mxGeometry relative="1" as="geometry">
            <mxPoint x="2336" y="852.0000000000002" as="sourcePoint" />
            <mxPoint x="2436" y="902" as="targetPoint" />
            <Array as="points" />
          </mxGeometry>
        </mxCell>
        <mxCell id="js9QWIpTAmIStjJIfFOv-48" value="" style="rounded=0;html=1;labelBackgroundColor=none;endArrow=none;edgeStyle=elbowEdgeStyle;elbow=vertical;startArrow=sysMLPackCont;startSize=12;" parent="1" target="js9QWIpTAmIStjJIfFOv-45" edge="1">
          <mxGeometry relative="1" as="geometry">
            <mxPoint x="2612" y="533" as="sourcePoint" />
            <mxPoint x="2731" y="763" as="targetPoint" />
            <Array as="points" />
          </mxGeometry>
        </mxCell>
        <mxCell id="js9QWIpTAmIStjJIfFOv-49" value="" style="rounded=0;html=1;labelBackgroundColor=none;endArrow=none;edgeStyle=elbowEdgeStyle;elbow=vertical;startArrow=sysMLPackCont;startSize=12;" parent="1" target="js9QWIpTAmIStjJIfFOv-46" edge="1">
          <mxGeometry relative="1" as="geometry">
            <mxPoint x="2612" y="533" as="sourcePoint" />
            <mxPoint x="2622" y="783" as="targetPoint" />
            <Array as="points">
              <mxPoint x="2612" y="553" />
            </Array>
          </mxGeometry>
        </mxCell>
        <mxCell id="js9QWIpTAmIStjJIfFOv-50" value="" style="rounded=0;html=1;labelBackgroundColor=none;endArrow=none;edgeStyle=elbowEdgeStyle;elbow=vertical;startArrow=sysMLPackCont;startSize=12;" parent="1" target="js9QWIpTAmIStjJIfFOv-47" edge="1">
          <mxGeometry relative="1" as="geometry">
            <mxPoint x="2612" y="533" as="sourcePoint" />
            <mxPoint x="2767" y="573" as="targetPoint" />
            <Array as="points" />
          </mxGeometry>
        </mxCell>
        <mxCell id="jiixLFprqPIUBCIlmw_A-1" value="&lt;p style=&quot;margin:0px;margin-top:4px;text-align:center;&quot;&gt;&amp;lt;&amp;lt;Func Req&amp;gt;&amp;gt;&lt;br&gt;&lt;b&gt;Register patient&lt;/b&gt;&lt;/p&gt;&lt;hr&gt;&lt;p&gt;&lt;/p&gt;&lt;p style=&quot;margin:0px;margin-left:8px;text-align:left;&quot;&gt;&lt;b&gt;Text&amp;nbsp;&lt;/b&gt;= &quot;The system should be able to register a new patient&quot;&lt;br&gt;&lt;b&gt;Id&amp;nbsp; &amp;nbsp; &amp;nbsp;&lt;/b&gt;= &quot;1.0&quot;&lt;/p&gt;" style="shape=rect;overflow=fill;html=1;whiteSpace=wrap;align=center;" vertex="1" parent="1">
          <mxGeometry x="-1115" y="370" width="200" height="100" as="geometry" />
        </mxCell>
        <mxCell id="jiixLFprqPIUBCIlmw_A-2" value="" style="rounded=0;html=1;labelBackgroundColor=none;endArrow=none;elbow=vertical;startArrow=sysMLPackCont;startSize=12;entryX=0.5;entryY=0;entryDx=0;entryDy=0;exitX=0.5;exitY=1;exitDx=0;exitDy=0;edgeStyle=orthogonalEdgeStyle;" edge="1" parent="1" source="1v43-9IHqfWxljv2G6Mm-43" target="jiixLFprqPIUBCIlmw_A-28">
          <mxGeometry relative="1" as="geometry">
            <mxPoint x="-728" y="327" as="sourcePoint" />
            <mxPoint x="-796" y="370" as="targetPoint" />
          </mxGeometry>
        </mxCell>
        <mxCell id="jiixLFprqPIUBCIlmw_A-3" value="" style="rounded=0;html=1;labelBackgroundColor=none;endArrow=none;elbow=vertical;startArrow=sysMLPackCont;startSize=12;entryX=0.5;entryY=0;entryDx=0;entryDy=0;exitX=0.5;exitY=1;exitDx=0;exitDy=0;edgeStyle=orthogonalEdgeStyle;" edge="1" parent="1" source="1v43-9IHqfWxljv2G6Mm-43" target="jiixLFprqPIUBCIlmw_A-29">
          <mxGeometry relative="1" as="geometry">
            <mxPoint x="-728" y="327" as="sourcePoint" />
            <mxPoint x="-576" y="370" as="targetPoint" />
          </mxGeometry>
        </mxCell>
        <mxCell id="jiixLFprqPIUBCIlmw_A-4" value="" style="rounded=0;html=1;labelBackgroundColor=none;endArrow=none;elbow=vertical;startArrow=sysMLPackCont;startSize=12;entryX=0.5;entryY=0;entryDx=0;entryDy=0;exitX=0.5;exitY=1;exitDx=0;exitDy=0;edgeStyle=orthogonalEdgeStyle;" edge="1" parent="1" source="1v43-9IHqfWxljv2G6Mm-43" target="jiixLFprqPIUBCIlmw_A-1">
          <mxGeometry relative="1" as="geometry">
            <mxPoint x="-728" y="327" as="sourcePoint" />
            <mxPoint x="-613" y="375" as="targetPoint" />
          </mxGeometry>
        </mxCell>
        <mxCell id="jiixLFprqPIUBCIlmw_A-5" value="" style="rounded=0;html=1;labelBackgroundColor=none;endArrow=none;elbow=vertical;startArrow=sysMLPackCont;startSize=12;exitX=0.5;exitY=1;exitDx=0;exitDy=0;entryX=0.5;entryY=0;entryDx=0;entryDy=0;edgeStyle=orthogonalEdgeStyle;" edge="1" parent="1" source="1v43-9IHqfWxljv2G6Mm-44" target="jiixLFprqPIUBCIlmw_A-30">
          <mxGeometry relative="1" as="geometry">
            <mxPoint x="44" y="200" as="sourcePoint" />
            <mxPoint x="-345" y="370" as="targetPoint" />
          </mxGeometry>
        </mxCell>
        <mxCell id="jiixLFprqPIUBCIlmw_A-6" value="" style="rounded=0;html=1;labelBackgroundColor=none;endArrow=none;elbow=vertical;startArrow=sysMLPackCont;startSize=12;exitX=0.5;exitY=1;exitDx=0;exitDy=0;entryX=0.5;entryY=0;entryDx=0;entryDy=0;edgeStyle=orthogonalEdgeStyle;" edge="1" parent="1" source="1v43-9IHqfWxljv2G6Mm-44" target="jiixLFprqPIUBCIlmw_A-31">
          <mxGeometry relative="1" as="geometry">
            <mxPoint x="44" y="320" as="sourcePoint" />
            <mxPoint x="-126" y="370" as="targetPoint" />
          </mxGeometry>
        </mxCell>
        <mxCell id="jiixLFprqPIUBCIlmw_A-7" value="" style="rounded=0;html=1;labelBackgroundColor=none;endArrow=none;elbow=vertical;startArrow=sysMLPackCont;startSize=12;entryX=0.5;entryY=0;entryDx=0;entryDy=0;exitX=0.5;exitY=1;exitDx=0;exitDy=0;edgeStyle=orthogonalEdgeStyle;" edge="1" parent="1" source="1v43-9IHqfWxljv2G6Mm-1" target="1v43-9IHqfWxljv2G6Mm-43">
          <mxGeometry relative="1" as="geometry">
            <mxPoint x="-810" y="328" as="sourcePoint" />
            <mxPoint x="-566" y="380" as="targetPoint" />
          </mxGeometry>
        </mxCell>
        <mxCell id="jiixLFprqPIUBCIlmw_A-8" value="" style="rounded=0;html=1;labelBackgroundColor=none;endArrow=none;elbow=vertical;startArrow=sysMLPackCont;startSize=12;entryX=0.5;entryY=0;entryDx=0;entryDy=0;exitX=0.5;exitY=1;exitDx=0;exitDy=0;edgeStyle=orthogonalEdgeStyle;" edge="1" parent="1" source="1v43-9IHqfWxljv2G6Mm-1" target="1v43-9IHqfWxljv2G6Mm-44">
          <mxGeometry relative="1" as="geometry">
            <mxPoint x="44" y="200" as="sourcePoint" />
            <mxPoint x="-810" y="268" as="targetPoint" />
          </mxGeometry>
        </mxCell>
        <mxCell id="jiixLFprqPIUBCIlmw_A-9" value="" style="rounded=0;html=1;labelBackgroundColor=none;endArrow=none;elbow=vertical;startArrow=sysMLPackCont;startSize=12;entryX=0.5;entryY=0;entryDx=0;entryDy=0;exitX=0.5;exitY=1;exitDx=0;exitDy=0;edgeStyle=orthogonalEdgeStyle;" edge="1" parent="1" source="1v43-9IHqfWxljv2G6Mm-1" target="1v43-9IHqfWxljv2G6Mm-45">
          <mxGeometry relative="1" as="geometry">
            <mxPoint x="44" y="200" as="sourcePoint" />
            <mxPoint x="-226" y="268" as="targetPoint" />
          </mxGeometry>
        </mxCell>
        <mxCell id="jiixLFprqPIUBCIlmw_A-10" value="" style="rounded=0;html=1;labelBackgroundColor=none;endArrow=none;elbow=vertical;startArrow=sysMLPackCont;startSize=12;exitX=0.5;exitY=1;exitDx=0;exitDy=0;entryX=0.5;entryY=0;entryDx=0;entryDy=0;edgeStyle=orthogonalEdgeStyle;" edge="1" parent="1" source="1v43-9IHqfWxljv2G6Mm-45" target="jiixLFprqPIUBCIlmw_A-32">
          <mxGeometry relative="1" as="geometry">
            <mxPoint x="-374" y="328" as="sourcePoint" />
            <mxPoint x="126" y="370" as="targetPoint" />
          </mxGeometry>
        </mxCell>
        <mxCell id="jiixLFprqPIUBCIlmw_A-11" value="" style="rounded=0;html=1;labelBackgroundColor=none;endArrow=none;elbow=vertical;startArrow=sysMLPackCont;startSize=12;exitX=0.5;exitY=1;exitDx=0;exitDy=0;exitPerimeter=0;entryX=0.5;entryY=0;entryDx=0;entryDy=0;edgeStyle=orthogonalEdgeStyle;" edge="1" parent="1" source="1v43-9IHqfWxljv2G6Mm-2" target="1v43-9IHqfWxljv2G6Mm-4">
          <mxGeometry relative="1" as="geometry">
            <mxPoint x="1078" y="56" as="sourcePoint" />
            <mxPoint x="103" y="123" as="targetPoint" />
          </mxGeometry>
        </mxCell>
        <mxCell id="jiixLFprqPIUBCIlmw_A-12" value="" style="rounded=0;html=1;labelBackgroundColor=none;endArrow=none;elbow=vertical;startArrow=sysMLPackCont;startSize=12;exitX=0.5;exitY=1;exitDx=0;exitDy=0;entryX=0.5;entryY=0;entryDx=0;entryDy=0;edgeStyle=orthogonalEdgeStyle;" edge="1" parent="1" source="1v43-9IHqfWxljv2G6Mm-4" target="1v43-9IHqfWxljv2G6Mm-88">
          <mxGeometry relative="1" as="geometry">
            <mxPoint x="447" y="249" as="sourcePoint" />
            <mxPoint x="907" y="316" as="targetPoint" />
          </mxGeometry>
        </mxCell>
        <mxCell id="jiixLFprqPIUBCIlmw_A-13" value="" style="rounded=0;html=1;labelBackgroundColor=none;endArrow=none;elbow=vertical;startArrow=sysMLPackCont;startSize=12;exitX=0.5;exitY=1;exitDx=0;exitDy=0;entryX=0.5;entryY=0;entryDx=0;entryDy=0;edgeStyle=orthogonalEdgeStyle;" edge="1" parent="1" source="1v43-9IHqfWxljv2G6Mm-4" target="js9QWIpTAmIStjJIfFOv-7">
          <mxGeometry relative="1" as="geometry">
            <mxPoint x="1002" y="214" as="sourcePoint" />
            <mxPoint x="654" y="330" as="targetPoint" />
          </mxGeometry>
        </mxCell>
        <mxCell id="jiixLFprqPIUBCIlmw_A-14" value="" style="rounded=0;html=1;labelBackgroundColor=none;endArrow=none;elbow=vertical;startArrow=sysMLPackCont;startSize=12;exitX=0.5;exitY=1;exitDx=0;exitDy=0;entryX=0.5;entryY=0;entryDx=0;entryDy=0;edgeStyle=orthogonalEdgeStyle;" edge="1" parent="1" source="jiixLFprqPIUBCIlmw_A-33" target="jiixLFprqPIUBCIlmw_A-34">
          <mxGeometry relative="1" as="geometry">
            <mxPoint x="547" y="508" as="sourcePoint" />
            <mxPoint x="431" y="578" as="targetPoint" />
          </mxGeometry>
        </mxCell>
        <mxCell id="jiixLFprqPIUBCIlmw_A-15" value="" style="rounded=0;html=1;labelBackgroundColor=none;endArrow=none;elbow=vertical;startArrow=sysMLPackCont;startSize=12;exitX=0.5;exitY=1;exitDx=0;exitDy=0;entryX=0.5;entryY=0;entryDx=0;entryDy=0;edgeStyle=orthogonalEdgeStyle;" edge="1" parent="1" source="1v43-9IHqfWxljv2G6Mm-88" target="jiixLFprqPIUBCIlmw_A-33">
          <mxGeometry relative="1" as="geometry">
            <mxPoint x="557" y="518" as="sourcePoint" />
            <mxPoint x="547" y="408" as="targetPoint" />
          </mxGeometry>
        </mxCell>
        <mxCell id="jiixLFprqPIUBCIlmw_A-16" value="" style="rounded=0;html=1;labelBackgroundColor=none;endArrow=none;elbow=vertical;startArrow=sysMLPackCont;startSize=12;entryX=0.5;entryY=0;entryDx=0;entryDy=0;edgeStyle=orthogonalEdgeStyle;exitX=0.5;exitY=1;exitDx=0;exitDy=0;" edge="1" parent="1" source="jiixLFprqPIUBCIlmw_A-33" target="jiixLFprqPIUBCIlmw_A-35">
          <mxGeometry relative="1" as="geometry">
            <mxPoint x="547" y="508" as="sourcePoint" />
            <mxPoint x="657" y="578" as="targetPoint" />
          </mxGeometry>
        </mxCell>
        <mxCell id="jiixLFprqPIUBCIlmw_A-17" value="" style="rounded=0;html=1;labelBackgroundColor=none;endArrow=none;elbow=vertical;startArrow=sysMLPackCont;startSize=12;exitX=0.5;exitY=1;exitDx=0;exitDy=0;entryX=0.5;entryY=0;entryDx=0;entryDy=0;edgeStyle=orthogonalEdgeStyle;" edge="1" parent="1" source="js9QWIpTAmIStjJIfFOv-7" target="jiixLFprqPIUBCIlmw_A-36">
          <mxGeometry relative="1" as="geometry">
            <mxPoint x="1117" y="312" as="sourcePoint" />
            <mxPoint x="1179" y="403" as="targetPoint" />
          </mxGeometry>
        </mxCell>
        <mxCell id="jiixLFprqPIUBCIlmw_A-18" value="" style="rounded=0;html=1;labelBackgroundColor=none;endArrow=none;elbow=vertical;startArrow=sysMLPackCont;startSize=12;exitX=0.5;exitY=1;exitDx=0;exitDy=0;entryX=0.5;entryY=0;entryDx=0;entryDy=0;edgeStyle=orthogonalEdgeStyle;" edge="1" parent="1" source="js9QWIpTAmIStjJIfFOv-7" target="jiixLFprqPIUBCIlmw_A-47">
          <mxGeometry relative="1" as="geometry">
            <mxPoint x="1591" y="453" as="sourcePoint" />
            <mxPoint x="2082" y="403" as="targetPoint" />
          </mxGeometry>
        </mxCell>
        <mxCell id="jiixLFprqPIUBCIlmw_A-19" value="" style="rounded=0;html=1;labelBackgroundColor=none;endArrow=none;elbow=vertical;startArrow=sysMLPackCont;startSize=12;exitX=0.5;exitY=1;exitDx=0;exitDy=0;edgeStyle=orthogonalEdgeStyle;entryX=0.5;entryY=0;entryDx=0;entryDy=0;" edge="1" parent="1" source="js9QWIpTAmIStjJIfFOv-7" target="jiixLFprqPIUBCIlmw_A-57">
          <mxGeometry relative="1" as="geometry">
            <mxPoint x="1964" y="393" as="sourcePoint" />
            <mxPoint x="3165" y="403" as="targetPoint" />
          </mxGeometry>
        </mxCell>
        <mxCell id="jiixLFprqPIUBCIlmw_A-20" value="" style="rounded=0;html=1;labelBackgroundColor=none;endArrow=none;elbow=vertical;startArrow=sysMLPackCont;startSize=12;exitX=0.5;exitY=1;exitDx=0;exitDy=0;entryX=0.5;entryY=0;entryDx=0;entryDy=0;edgeStyle=orthogonalEdgeStyle;" edge="1" parent="1" source="jiixLFprqPIUBCIlmw_A-36" target="jiixLFprqPIUBCIlmw_A-37">
          <mxGeometry relative="1" as="geometry">
            <mxPoint x="1179" y="513" as="sourcePoint" />
            <mxPoint x="924" y="568" as="targetPoint" />
          </mxGeometry>
        </mxCell>
        <mxCell id="jiixLFprqPIUBCIlmw_A-21" value="" style="rounded=0;html=1;labelBackgroundColor=none;endArrow=none;elbow=vertical;startArrow=sysMLPackCont;startSize=12;exitX=0.5;exitY=1;exitDx=0;exitDy=0;entryX=0.5;entryY=0;entryDx=0;entryDy=0;edgeStyle=orthogonalEdgeStyle;" edge="1" parent="1" source="jiixLFprqPIUBCIlmw_A-36" target="jiixLFprqPIUBCIlmw_A-40">
          <mxGeometry relative="1" as="geometry">
            <mxPoint x="1179" y="513" as="sourcePoint" />
            <mxPoint x="1477" y="566.5" as="targetPoint" />
          </mxGeometry>
        </mxCell>
        <mxCell id="jiixLFprqPIUBCIlmw_A-22" value="" style="rounded=0;html=1;labelBackgroundColor=none;endArrow=none;elbow=vertical;startArrow=sysMLPackCont;startSize=12;exitX=0.5;exitY=1;exitDx=0;exitDy=0;edgeStyle=orthogonalEdgeStyle;entryX=0.5;entryY=0;entryDx=0;entryDy=0;" edge="1" parent="1" source="jiixLFprqPIUBCIlmw_A-37" target="jiixLFprqPIUBCIlmw_A-38">
          <mxGeometry relative="1" as="geometry">
            <mxPoint x="924" y="668" as="sourcePoint" />
            <mxPoint x="810" y="803" as="targetPoint" />
          </mxGeometry>
        </mxCell>
        <mxCell id="jiixLFprqPIUBCIlmw_A-23" value="" style="rounded=0;html=1;labelBackgroundColor=none;endArrow=none;elbow=vertical;startArrow=sysMLPackCont;startSize=12;exitX=0.5;exitY=1;exitDx=0;exitDy=0;entryX=0.5;entryY=0;entryDx=0;entryDy=0;edgeStyle=orthogonalEdgeStyle;" edge="1" parent="1" source="jiixLFprqPIUBCIlmw_A-37" target="jiixLFprqPIUBCIlmw_A-39">
          <mxGeometry relative="1" as="geometry">
            <mxPoint x="924" y="668" as="sourcePoint" />
            <mxPoint x="1030" y="803" as="targetPoint" />
          </mxGeometry>
        </mxCell>
        <mxCell id="jiixLFprqPIUBCIlmw_A-28" value="&lt;p style=&quot;margin:0px;margin-top:4px;text-align:center;&quot;&gt;&amp;lt;&amp;lt;Func Req&amp;gt;&amp;gt;&lt;br&gt;&lt;b&gt;Schedule Appointment&lt;/b&gt;&lt;br&gt;&lt;/p&gt;&lt;hr&gt;&lt;p&gt;&lt;/p&gt;&lt;p style=&quot;margin:0px;margin-left:8px;text-align:left;&quot;&gt;&lt;b&gt;Text&amp;nbsp;&lt;/b&gt;= &quot;A patient should be able to schedule an appointment&quot;&lt;br&gt;&lt;b&gt;Id&amp;nbsp; &amp;nbsp; &amp;nbsp;&lt;/b&gt;= &quot;1.0&quot;&lt;/p&gt;" style="shape=rect;overflow=fill;html=1;whiteSpace=wrap;align=center;" vertex="1" parent="1">
          <mxGeometry x="-896" y="370" width="200" height="113" as="geometry" />
        </mxCell>
        <mxCell id="jiixLFprqPIUBCIlmw_A-29" value="&lt;p style=&quot;margin:0px;margin-top:4px;text-align:center;&quot;&gt;&amp;lt;&amp;lt;Func Req&amp;gt;&amp;gt;&lt;br&gt;&lt;b&gt;Check-in&lt;/b&gt;&lt;/p&gt;&lt;hr&gt;&lt;p&gt;&lt;/p&gt;&lt;p style=&quot;margin:0px;margin-left:8px;text-align:left;&quot;&gt;&lt;b&gt;Text&amp;nbsp;&lt;/b&gt;= &quot;There must be a chck-in mechanism in the system&quot;&lt;br&gt;&lt;b&gt;Id&amp;nbsp; &amp;nbsp; &amp;nbsp;&lt;/b&gt;= &quot;1.0&quot;&lt;/p&gt;" style="shape=rect;overflow=fill;html=1;whiteSpace=wrap;align=center;" vertex="1" parent="1">
          <mxGeometry x="-677" y="370" width="200" height="113" as="geometry" />
        </mxCell>
        <mxCell id="jiixLFprqPIUBCIlmw_A-30" value="&lt;p style=&quot;margin:0px;margin-top:4px;text-align:center;&quot;&gt;&amp;lt;&amp;lt;Func Req&amp;gt;&amp;gt;&lt;br&gt;&lt;b&gt;See list of doctors&lt;/b&gt;&lt;br&gt;&lt;/p&gt;&lt;hr&gt;&lt;p&gt;&lt;/p&gt;&lt;p style=&quot;margin:0px;margin-left:8px;text-align:left;&quot;&gt;&lt;b&gt;Text&amp;nbsp;&lt;/b&gt;= &quot;Every user should be able to see the list of doctors&quot;&lt;br&gt;&lt;b&gt;Id&amp;nbsp; &amp;nbsp; &amp;nbsp;&lt;/b&gt;= &quot;1.0&quot;&lt;/p&gt;" style="shape=rect;overflow=fill;html=1;whiteSpace=wrap;align=center;" vertex="1" parent="1">
          <mxGeometry x="-454" y="370" width="200" height="113" as="geometry" />
        </mxCell>
        <mxCell id="jiixLFprqPIUBCIlmw_A-31" value="&lt;p style=&quot;margin:0px;margin-top:4px;text-align:center;&quot;&gt;&amp;lt;&amp;lt;Func Req&amp;gt;&amp;gt;&lt;br&gt;&lt;b&gt;See list of appointments&lt;/b&gt;&lt;br&gt;&lt;/p&gt;&lt;hr&gt;&lt;p&gt;&lt;/p&gt;&lt;p style=&quot;margin:0px;margin-left:8px;text-align:left;&quot;&gt;&lt;b&gt;Text&amp;nbsp;&lt;/b&gt;= &quot;Doctors and patients should be able to see their appointments&quot;&lt;br&gt;&lt;b&gt;Id&amp;nbsp; &amp;nbsp; &amp;nbsp;&lt;/b&gt;= &quot;1.0&quot;&lt;/p&gt;" style="shape=rect;overflow=fill;html=1;whiteSpace=wrap;align=center;" vertex="1" parent="1">
          <mxGeometry x="-223" y="370" width="200" height="113" as="geometry" />
        </mxCell>
        <mxCell id="jiixLFprqPIUBCIlmw_A-32" value="&lt;p style=&quot;margin:0px;margin-top:4px;text-align:center;&quot;&gt;&amp;lt;&amp;lt;Func Req&amp;gt;&amp;gt;&lt;br&gt;&lt;b&gt;Review doctor&lt;/b&gt;&lt;/p&gt;&lt;hr&gt;&lt;p&gt;&lt;/p&gt;&lt;p style=&quot;margin:0px;margin-left:8px;text-align:left;&quot;&gt;&lt;b&gt;Text&amp;nbsp;&lt;/b&gt;= &quot;A patient should be able to review the doctor who he had the appointment with&quot;&lt;br&gt;&lt;b&gt;Id&amp;nbsp; &amp;nbsp; &amp;nbsp;&lt;/b&gt;= &quot;1.0&quot;&lt;/p&gt;" style="shape=rect;overflow=fill;html=1;whiteSpace=wrap;align=center;" vertex="1" parent="1">
          <mxGeometry x="26" y="370" width="200" height="113" as="geometry" />
        </mxCell>
        <mxCell id="jiixLFprqPIUBCIlmw_A-33" value="&lt;p style=&quot;margin:0px;margin-top:4px;text-align:center;&quot;&gt;&amp;lt;&amp;lt;NF Req&amp;gt;&amp;gt;&lt;br&gt;&lt;b&gt;Maintainability&lt;/b&gt;&lt;br&gt;&lt;/p&gt;&lt;hr&gt;&lt;p&gt;&lt;/p&gt;&lt;p style=&quot;margin:0px;margin-left:8px;text-align:left;&quot;&gt;&lt;b&gt;Text&amp;nbsp;&lt;/b&gt;= &quot;The system needs to be easy to maintain&quot;&lt;br&gt;&lt;b&gt;Id&amp;nbsp; &amp;nbsp; &amp;nbsp;&lt;/b&gt;= &quot;1.0&quot;&lt;/p&gt;" style="shape=rect;overflow=fill;html=1;whiteSpace=wrap;align=center;" vertex="1" parent="1">
          <mxGeometry x="447" y="406" width="200" height="113" as="geometry" />
        </mxCell>
        <mxCell id="jiixLFprqPIUBCIlmw_A-34" value="&lt;p style=&quot;margin:0px;margin-top:4px;text-align:center;&quot;&gt;&amp;lt;&amp;lt;NF Req&amp;gt;&amp;gt;&lt;br&gt;&lt;b&gt;OOP Based modularization&lt;/b&gt;&lt;/p&gt;&lt;hr&gt;&lt;p&gt;&lt;/p&gt;&lt;p style=&quot;margin:0px;margin-left:8px;text-align:left;&quot;&gt;&lt;b&gt;Text&amp;nbsp;&lt;/b&gt;= &quot;The system should implement object oriented programing modularization&quot;&lt;br&gt;&lt;b&gt;Id&amp;nbsp; &amp;nbsp; &amp;nbsp;&lt;/b&gt;= &quot;1.0&quot;&lt;/p&gt;" style="shape=rect;overflow=fill;html=1;whiteSpace=wrap;align=center;" vertex="1" parent="1">
          <mxGeometry x="335" y="578" width="200" height="113" as="geometry" />
        </mxCell>
        <mxCell id="jiixLFprqPIUBCIlmw_A-35" value="&lt;p style=&quot;margin:0px;margin-top:4px;text-align:center;&quot;&gt;&amp;lt;&amp;lt;NF Req&amp;gt;&amp;gt;&lt;br&gt;&lt;b&gt;Acceptance criteria&lt;/b&gt;&lt;/p&gt;&lt;hr&gt;&lt;p&gt;&lt;/p&gt;&lt;p style=&quot;margin:0px;margin-left:8px;text-align:left;&quot;&gt;&lt;b&gt;Text&amp;nbsp;&lt;/b&gt;= &quot;The system should have acceptance criteria&quot;&lt;br&gt;&lt;b&gt;Id&amp;nbsp; &amp;nbsp; &amp;nbsp;&lt;/b&gt;= &quot;1.0&quot;&lt;/p&gt;" style="shape=rect;overflow=fill;html=1;whiteSpace=wrap;align=center;" vertex="1" parent="1">
          <mxGeometry x="563" y="578" width="200" height="113" as="geometry" />
        </mxCell>
        <mxCell id="jiixLFprqPIUBCIlmw_A-36" value="&lt;p style=&quot;margin:0px;margin-top:4px;text-align:center;&quot;&gt;&amp;lt;&amp;lt;NF Req&amp;gt;&amp;gt;&lt;br&gt;&lt;b&gt;Performance&lt;/b&gt;&lt;/p&gt;&lt;hr&gt;&lt;p&gt;&lt;/p&gt;&lt;p style=&quot;margin:0px;margin-left:8px;text-align:left;&quot;&gt;&lt;b&gt;Text&amp;nbsp;&lt;/b&gt;= &quot;The system needs to have high performance&quot;&lt;br&gt;&lt;b&gt;Id&amp;nbsp; &amp;nbsp; &amp;nbsp;&lt;/b&gt;= &quot;1.0&quot;&lt;/p&gt;" style="shape=rect;overflow=fill;html=1;whiteSpace=wrap;align=center;" vertex="1" parent="1">
          <mxGeometry x="1081" y="403" width="200" height="113" as="geometry" />
        </mxCell>
        <mxCell id="jiixLFprqPIUBCIlmw_A-37" value="&lt;p style=&quot;margin:0px;margin-top:4px;text-align:center;&quot;&gt;&amp;lt;&amp;lt;NF Req&amp;gt;&amp;gt;&lt;br&gt;&lt;b&gt;Space performance&lt;/b&gt;&lt;/p&gt;&lt;hr&gt;&lt;p&gt;&lt;/p&gt;&lt;p style=&quot;margin:0px;margin-left:8px;text-align:left;&quot;&gt;&lt;b&gt;Text&amp;nbsp;&lt;/b&gt;= &quot;The system should have enough space to accomodate high load situations without compromosing performance&quot;&lt;br&gt;&lt;b&gt;Id&amp;nbsp; &amp;nbsp; &amp;nbsp;&lt;/b&gt;= &quot;1.0&quot;&lt;/p&gt;" style="shape=rect;overflow=fill;html=1;whiteSpace=wrap;align=center;" vertex="1" parent="1">
          <mxGeometry x="824" y="566.5" width="200" height="127.5" as="geometry" />
        </mxCell>
        <mxCell id="jiixLFprqPIUBCIlmw_A-38" value="&lt;p style=&quot;margin:0px;margin-top:4px;text-align:center;&quot;&gt;&amp;lt;&amp;lt;NF Req&amp;gt;&amp;gt;&lt;br&gt;&lt;b&gt;Database size&lt;/b&gt;&lt;/p&gt;&lt;hr&gt;&lt;p&gt;&lt;/p&gt;&lt;p style=&quot;margin:0px;margin-left:8px;text-align:left;&quot;&gt;&lt;b&gt;Text&amp;nbsp;&lt;/b&gt;= &quot;Database size should be estimated based on the requirements and minimized&quot;&lt;br&gt;&lt;b&gt;Id&amp;nbsp; &amp;nbsp; &amp;nbsp;&lt;/b&gt;= &quot;1.0&quot;&lt;/p&gt;" style="shape=rect;overflow=fill;html=1;whiteSpace=wrap;align=center;" vertex="1" parent="1">
          <mxGeometry x="709" y="803" width="200" height="127.5" as="geometry" />
        </mxCell>
        <mxCell id="jiixLFprqPIUBCIlmw_A-39" value="&lt;p style=&quot;margin:0px;margin-top:4px;text-align:center;&quot;&gt;&amp;lt;&amp;lt;NF Req&amp;gt;&amp;gt;&lt;br&gt;&lt;b&gt;Main memory size&lt;/b&gt;&lt;/p&gt;&lt;hr&gt;&lt;p&gt;&lt;/p&gt;&lt;p style=&quot;margin:0px;margin-left:8px;text-align:left;&quot;&gt;&lt;b&gt;Text&amp;nbsp;&lt;/b&gt;= &quot;The system should have enough memory to accomodate a high request load&quot;&lt;br&gt;&lt;b&gt;Id&amp;nbsp; &amp;nbsp; &amp;nbsp;&lt;/b&gt;= &quot;1.0&quot;&lt;/p&gt;" style="shape=rect;overflow=fill;html=1;whiteSpace=wrap;align=center;" vertex="1" parent="1">
          <mxGeometry x="925" y="803" width="200" height="127.5" as="geometry" />
        </mxCell>
        <mxCell id="jiixLFprqPIUBCIlmw_A-40" value="&lt;p style=&quot;margin:0px;margin-top:4px;text-align:center;&quot;&gt;&amp;lt;&amp;lt;NF Req&amp;gt;&amp;gt;&lt;br&gt;&lt;b&gt;Time Performance&lt;/b&gt;&lt;br&gt;&lt;/p&gt;&lt;hr&gt;&lt;p&gt;&lt;/p&gt;&lt;p style=&quot;margin:0px;margin-left:8px;text-align:left;&quot;&gt;&lt;b&gt;Text&amp;nbsp;&lt;/b&gt;= &quot;The system needs to have low response time&quot;&lt;br&gt;&lt;b&gt;Id&amp;nbsp; &amp;nbsp; &amp;nbsp;&lt;/b&gt;= &quot;1.0&quot;&lt;/p&gt;" style="shape=rect;overflow=fill;html=1;whiteSpace=wrap;align=center;" vertex="1" parent="1">
          <mxGeometry x="1366" y="566.5" width="200" height="127.5" as="geometry" />
        </mxCell>
        <mxCell id="jiixLFprqPIUBCIlmw_A-41" value="&lt;p style=&quot;margin:0px;margin-top:4px;text-align:center;&quot;&gt;&amp;lt;&amp;lt;NF Req&amp;gt;&amp;gt;&lt;br&gt;&lt;b&gt;DB Indexing&lt;/b&gt;&lt;br&gt;&lt;/p&gt;&lt;hr&gt;&lt;p&gt;&lt;/p&gt;&lt;p style=&quot;margin:0px;margin-left:8px;text-align:left;&quot;&gt;&lt;b&gt;Text&amp;nbsp;&lt;/b&gt;= &quot;The database should use indexes to optimize most frequent queries search fields&quot;&lt;br&gt;&lt;b&gt;Id&amp;nbsp; &amp;nbsp; &amp;nbsp;&lt;/b&gt;= &quot;1.0&quot;&lt;/p&gt;" style="shape=rect;overflow=fill;html=1;whiteSpace=wrap;align=center;" vertex="1" parent="1">
          <mxGeometry x="1157" y="803" width="200" height="127.5" as="geometry" />
        </mxCell>
        <mxCell id="jiixLFprqPIUBCIlmw_A-42" value="&lt;p style=&quot;margin:0px;margin-top:4px;text-align:center;&quot;&gt;&amp;lt;&amp;lt;NF Req&amp;gt;&amp;gt;&lt;br&gt;&lt;b&gt;DB Connection Pool&lt;/b&gt;&lt;br&gt;&lt;/p&gt;&lt;hr&gt;&lt;p&gt;&lt;/p&gt;&lt;p style=&quot;margin:0px;margin-left:8px;text-align:left;&quot;&gt;&lt;b&gt;Text&amp;nbsp;&lt;/b&gt;= &quot;The system must have a connection pool to the database to avoid bottleneck&quot;&lt;br&gt;&lt;b&gt;Id&amp;nbsp; &amp;nbsp; &amp;nbsp;&lt;/b&gt;= &quot;1.0&quot;&lt;/p&gt;" style="shape=rect;overflow=fill;html=1;whiteSpace=wrap;align=center;" vertex="1" parent="1">
          <mxGeometry x="1366" y="803" width="200" height="127.5" as="geometry" />
        </mxCell>
        <mxCell id="jiixLFprqPIUBCIlmw_A-43" value="&lt;p style=&quot;margin:0px;margin-top:4px;text-align:center;&quot;&gt;&amp;lt;&amp;lt;NF Req&amp;gt;&amp;gt;&lt;br&gt;&lt;b&gt;Caching&lt;/b&gt;&lt;/p&gt;&lt;hr&gt;&lt;p&gt;&lt;/p&gt;&lt;p style=&quot;margin:0px;margin-left:8px;text-align:left;&quot;&gt;&lt;b&gt;Text&amp;nbsp;&lt;/b&gt;= &quot;The system should have cache to enhance response time&quot;&lt;br&gt;&lt;b&gt;Id&amp;nbsp; &amp;nbsp; &amp;nbsp;&lt;/b&gt;= &quot;1.0&quot;&lt;/p&gt;" style="shape=rect;overflow=fill;html=1;whiteSpace=wrap;align=center;" vertex="1" parent="1">
          <mxGeometry x="1573" y="803" width="200" height="127.5" as="geometry" />
        </mxCell>
        <mxCell id="jiixLFprqPIUBCIlmw_A-44" value="" style="rounded=0;html=1;labelBackgroundColor=none;endArrow=none;elbow=vertical;startArrow=sysMLPackCont;startSize=12;exitX=0.5;exitY=1;exitDx=0;exitDy=0;entryX=0.5;entryY=0;entryDx=0;entryDy=0;edgeStyle=orthogonalEdgeStyle;" edge="1" parent="1" source="jiixLFprqPIUBCIlmw_A-40" target="jiixLFprqPIUBCIlmw_A-42">
          <mxGeometry relative="1" as="geometry">
            <mxPoint x="1313" y="761" as="sourcePoint" />
            <mxPoint x="1414" y="870" as="targetPoint" />
          </mxGeometry>
        </mxCell>
        <mxCell id="jiixLFprqPIUBCIlmw_A-45" value="" style="rounded=0;html=1;labelBackgroundColor=none;endArrow=none;elbow=vertical;startArrow=sysMLPackCont;startSize=12;exitX=0.5;exitY=1;exitDx=0;exitDy=0;entryX=0.5;entryY=0;entryDx=0;entryDy=0;edgeStyle=orthogonalEdgeStyle;" edge="1" parent="1" source="jiixLFprqPIUBCIlmw_A-40" target="jiixLFprqPIUBCIlmw_A-43">
          <mxGeometry relative="1" as="geometry">
            <mxPoint x="1612" y="705" as="sourcePoint" />
            <mxPoint x="1540" y="814" as="targetPoint" />
          </mxGeometry>
        </mxCell>
        <mxCell id="jiixLFprqPIUBCIlmw_A-46" value="" style="rounded=0;html=1;labelBackgroundColor=none;endArrow=none;elbow=vertical;startArrow=sysMLPackCont;startSize=12;exitX=0.5;exitY=1;exitDx=0;exitDy=0;entryX=0.5;entryY=0;entryDx=0;entryDy=0;edgeStyle=orthogonalEdgeStyle;" edge="1" parent="1" source="jiixLFprqPIUBCIlmw_A-40" target="jiixLFprqPIUBCIlmw_A-41">
          <mxGeometry relative="1" as="geometry">
            <mxPoint x="1334" y="701" as="sourcePoint" />
            <mxPoint x="1262" y="810" as="targetPoint" />
          </mxGeometry>
        </mxCell>
        <mxCell id="jiixLFprqPIUBCIlmw_A-47" value="&lt;p style=&quot;margin:0px;margin-top:4px;text-align:center;&quot;&gt;&amp;lt;&amp;lt;NF Req&amp;gt;&amp;gt;&lt;br&gt;&lt;b&gt;Availability&lt;/b&gt;&lt;br&gt;&lt;/p&gt;&lt;hr&gt;&lt;p&gt;&lt;/p&gt;&lt;p style=&quot;margin:0px;margin-left:8px;text-align:left;&quot;&gt;&lt;b&gt;Text&amp;nbsp;&lt;/b&gt;= &quot;The system must be available 99.9% of the year&quot;&lt;br&gt;&lt;b&gt;Id&amp;nbsp; &amp;nbsp; &amp;nbsp;&lt;/b&gt;= &quot;1.0&quot;&lt;/p&gt;" style="shape=rect;overflow=fill;html=1;whiteSpace=wrap;align=center;" vertex="1" parent="1">
          <mxGeometry x="2025" y="403" width="200" height="127.5" as="geometry" />
        </mxCell>
        <mxCell id="jiixLFprqPIUBCIlmw_A-48" value="&lt;p style=&quot;margin:0px;margin-top:4px;text-align:center;&quot;&gt;&amp;lt;&amp;lt;NF Req&amp;gt;&amp;gt;&lt;br&gt;&lt;b&gt;Fault tolerance&lt;/b&gt;&lt;/p&gt;&lt;hr&gt;&lt;p&gt;&lt;/p&gt;&lt;p style=&quot;margin:0px;margin-left:8px;text-align:left;&quot;&gt;&lt;b&gt;Text&amp;nbsp;&lt;/b&gt;= &quot;The system must tolerate faults&quot;&lt;br&gt;&lt;b&gt;Id&amp;nbsp; &amp;nbsp; &amp;nbsp;&lt;/b&gt;= &quot;1.0&quot;&lt;/p&gt;" style="shape=rect;overflow=fill;html=1;whiteSpace=wrap;align=center;" vertex="1" parent="1">
          <mxGeometry x="1908" y="608" width="200" height="127.5" as="geometry" />
        </mxCell>
        <mxCell id="jiixLFprqPIUBCIlmw_A-49" value="" style="rounded=0;html=1;labelBackgroundColor=none;endArrow=none;elbow=vertical;startArrow=sysMLPackCont;startSize=12;exitX=0.5;exitY=1;exitDx=0;exitDy=0;entryX=0.5;entryY=0;entryDx=0;entryDy=0;edgeStyle=orthogonalEdgeStyle;" edge="1" parent="1" source="jiixLFprqPIUBCIlmw_A-47" target="jiixLFprqPIUBCIlmw_A-48">
          <mxGeometry relative="1" as="geometry">
            <mxPoint x="1745" y="478" as="sourcePoint" />
            <mxPoint x="1952" y="587" as="targetPoint" />
          </mxGeometry>
        </mxCell>
        <mxCell id="jiixLFprqPIUBCIlmw_A-50" value="&lt;p style=&quot;margin:0px;margin-top:4px;text-align:center;&quot;&gt;&amp;lt;&amp;lt;NF Req&amp;gt;&amp;gt;&lt;br&gt;&lt;b&gt;SLAs&lt;/b&gt;&lt;/p&gt;&lt;hr&gt;&lt;p&gt;&lt;/p&gt;&lt;p style=&quot;margin:0px;margin-left:8px;text-align:left;&quot;&gt;&lt;b&gt;Text&amp;nbsp;&lt;/b&gt;= &quot;The system must provide SLAs to give stakeholders a wide vision of the possible cases&quot;&lt;br&gt;&lt;b&gt;Id&amp;nbsp; &amp;nbsp; &amp;nbsp;&lt;/b&gt;= &quot;1.0&quot;&lt;/p&gt;" style="shape=rect;overflow=fill;html=1;whiteSpace=wrap;align=center;" vertex="1" parent="1">
          <mxGeometry x="2136" y="608" width="200" height="127.5" as="geometry" />
        </mxCell>
        <mxCell id="jiixLFprqPIUBCIlmw_A-51" value="" style="rounded=0;html=1;labelBackgroundColor=none;endArrow=none;elbow=vertical;startArrow=sysMLPackCont;startSize=12;exitX=0.5;exitY=1;exitDx=0;exitDy=0;entryX=0.5;entryY=0;entryDx=0;entryDy=0;edgeStyle=orthogonalEdgeStyle;" edge="1" parent="1" source="jiixLFprqPIUBCIlmw_A-47" target="jiixLFprqPIUBCIlmw_A-50">
          <mxGeometry relative="1" as="geometry">
            <mxPoint x="2114" y="541" as="sourcePoint" />
            <mxPoint x="2018" y="618" as="targetPoint" />
          </mxGeometry>
        </mxCell>
        <mxCell id="jiixLFprqPIUBCIlmw_A-52" value="&lt;p style=&quot;margin:0px;margin-top:4px;text-align:center;&quot;&gt;&amp;lt;&amp;lt;NF Req&amp;gt;&amp;gt;&lt;br&gt;&lt;b&gt;Replication of applicational servers&lt;/b&gt;&lt;br&gt;&lt;/p&gt;&lt;hr&gt;&lt;p&gt;&lt;/p&gt;&lt;p style=&quot;margin:0px;margin-left:8px;text-align:left;&quot;&gt;&lt;b&gt;Text&amp;nbsp;&lt;/b&gt;= &quot;The system must have multiples instances of the applicational servers&quot;&lt;br&gt;&lt;b&gt;Id&amp;nbsp; &amp;nbsp; &amp;nbsp;&lt;/b&gt;= &quot;1.0&quot;&lt;/p&gt;" style="shape=rect;overflow=fill;html=1;whiteSpace=wrap;align=center;" vertex="1" parent="1">
          <mxGeometry x="1801" y="803" width="200" height="145" as="geometry" />
        </mxCell>
        <mxCell id="jiixLFprqPIUBCIlmw_A-53" value="" style="rounded=0;html=1;labelBackgroundColor=none;endArrow=none;elbow=vertical;startArrow=sysMLPackCont;startSize=12;exitX=0.5;exitY=1;exitDx=0;exitDy=0;entryX=0.5;entryY=0;entryDx=0;entryDy=0;edgeStyle=orthogonalEdgeStyle;" edge="1" parent="1" source="jiixLFprqPIUBCIlmw_A-48" target="jiixLFprqPIUBCIlmw_A-52">
          <mxGeometry relative="1" as="geometry">
            <mxPoint x="1963" y="813.5" as="sourcePoint" />
            <mxPoint x="1846" y="890.5" as="targetPoint" />
          </mxGeometry>
        </mxCell>
        <mxCell id="jiixLFprqPIUBCIlmw_A-54" value="" style="rounded=0;html=1;labelBackgroundColor=none;endArrow=none;elbow=vertical;startArrow=sysMLPackCont;startSize=12;exitX=0.5;exitY=1;exitDx=0;exitDy=0;entryX=0.5;entryY=0;entryDx=0;entryDy=0;edgeStyle=orthogonalEdgeStyle;" edge="1" parent="1" source="jiixLFprqPIUBCIlmw_A-48" target="jiixLFprqPIUBCIlmw_A-55">
          <mxGeometry relative="1" as="geometry">
            <mxPoint x="2038" y="757.5" as="sourcePoint" />
            <mxPoint x="2120" y="909" as="targetPoint" />
          </mxGeometry>
        </mxCell>
        <mxCell id="jiixLFprqPIUBCIlmw_A-55" value="&lt;p style=&quot;margin:0px;margin-top:4px;text-align:center;&quot;&gt;&amp;lt;&amp;lt;NF Req&amp;gt;&amp;gt;&lt;br&gt;&lt;b&gt;Replication of DB servers&lt;/b&gt;&lt;br&gt;&lt;/p&gt;&lt;hr&gt;&lt;p&gt;&lt;/p&gt;&lt;p style=&quot;margin:0px;margin-left:8px;text-align:left;&quot;&gt;&lt;b&gt;Text&amp;nbsp;&lt;/b&gt;= &quot;The system must use a replicated databased environment&quot;&lt;br&gt;&lt;b&gt;Id&amp;nbsp; &amp;nbsp; &amp;nbsp;&lt;/b&gt;= &quot;1.0&quot;&lt;/p&gt;" style="shape=rect;overflow=fill;html=1;whiteSpace=wrap;align=center;" vertex="1" parent="1">
          <mxGeometry x="2022" y="803" width="200" height="145" as="geometry" />
        </mxCell>
        <mxCell id="jiixLFprqPIUBCIlmw_A-56" value="&lt;p style=&quot;margin:0px;margin-top:4px;text-align:center;&quot;&gt;&amp;lt;&amp;lt;NF Req&amp;gt;&amp;gt;&lt;br&gt;&lt;b&gt;Disaster recovery plan&lt;/b&gt;&lt;/p&gt;&lt;hr&gt;&lt;p&gt;&lt;/p&gt;&lt;p style=&quot;margin:0px;margin-left:8px;text-align:left;&quot;&gt;&lt;b&gt;Text&amp;nbsp;&lt;/b&gt;= &quot;The system should have a well defined recovery plan in case of a catastrophe&quot;&lt;br&gt;&lt;b&gt;Id&amp;nbsp; &amp;nbsp; &amp;nbsp;&lt;/b&gt;= &quot;1.0&quot;&lt;/p&gt;" style="shape=rect;overflow=fill;html=1;whiteSpace=wrap;align=center;" vertex="1" parent="1">
          <mxGeometry x="2270" y="803" width="200" height="145" as="geometry" />
        </mxCell>
        <mxCell id="jiixLFprqPIUBCIlmw_A-57" value="&lt;p style=&quot;margin:0px;margin-top:4px;text-align:center;&quot;&gt;&amp;lt;&amp;lt;NF Req&amp;gt;&amp;gt;&lt;br&gt;&lt;b&gt;Usability&lt;/b&gt;&lt;br&gt;&lt;/p&gt;&lt;hr&gt;&lt;p&gt;&lt;/p&gt;&lt;p style=&quot;margin:0px;margin-left:8px;text-align:left;&quot;&gt;&lt;b&gt;Text&amp;nbsp;&lt;/b&gt;= &quot;The system must be easy and intuitive to use&quot;&lt;br&gt;&lt;b&gt;Id&amp;nbsp; &amp;nbsp; &amp;nbsp;&lt;/b&gt;= &quot;1.0&quot;&lt;/p&gt;" style="shape=rect;overflow=fill;html=1;whiteSpace=wrap;align=center;" vertex="1" parent="1">
          <mxGeometry x="2711" y="403" width="200" height="127.5" as="geometry" />
        </mxCell>
        <mxCell id="jiixLFprqPIUBCIlmw_A-58" value="&lt;p style=&quot;margin:0px;margin-top:4px;text-align:center;&quot;&gt;&amp;lt;&amp;lt;NF Req&amp;gt;&amp;gt;&lt;br&gt;&lt;b&gt;Configurable settings menu&lt;/b&gt;&lt;br&gt;&lt;/p&gt;&lt;hr&gt;&lt;p&gt;&lt;/p&gt;&lt;p style=&quot;margin:0px;margin-left:8px;text-align:left;&quot;&gt;&lt;b&gt;Text&amp;nbsp;&lt;/b&gt;= &quot;The system should allow the users to configure some aspects of the website&quot;&lt;br&gt;&lt;b&gt;Id&amp;nbsp; &amp;nbsp; &amp;nbsp;&lt;/b&gt;= &quot;1.0&quot;&lt;/p&gt;" style="shape=rect;overflow=fill;html=1;whiteSpace=wrap;align=center;" vertex="1" parent="1">
          <mxGeometry x="2470" y="620" width="200" height="127.5" as="geometry" />
        </mxCell>
        <mxCell id="jiixLFprqPIUBCIlmw_A-59" value="" style="rounded=0;html=1;labelBackgroundColor=none;endArrow=none;elbow=vertical;startArrow=sysMLPackCont;startSize=12;exitX=0.5;exitY=1;exitDx=0;exitDy=0;entryX=0.5;entryY=0;entryDx=0;entryDy=0;edgeStyle=orthogonalEdgeStyle;" edge="1" parent="1" source="jiixLFprqPIUBCIlmw_A-57" target="jiixLFprqPIUBCIlmw_A-58">
          <mxGeometry relative="1" as="geometry">
            <mxPoint x="2583" y="540.5" as="sourcePoint" />
            <mxPoint x="2694" y="617.5" as="targetPoint" />
          </mxGeometry>
        </mxCell>
        <mxCell id="jiixLFprqPIUBCIlmw_A-61" value="&lt;p style=&quot;margin:0px;margin-top:4px;text-align:center;&quot;&gt;&amp;lt;&amp;lt;NF Req&amp;gt;&amp;gt;&lt;br&gt;&lt;b&gt;Help menu&lt;/b&gt;&lt;br&gt;&lt;/p&gt;&lt;hr&gt;&lt;p&gt;&lt;/p&gt;&lt;p style=&quot;margin:0px;margin-left:8px;text-align:left;&quot;&gt;&lt;b&gt;Text&amp;nbsp;&lt;/b&gt;= &quot;The system should have a help menu to help users with doubts&quot;&lt;br&gt;&lt;b&gt;Id&amp;nbsp; &amp;nbsp; &amp;nbsp;&lt;/b&gt;= &quot;1.0&quot;&lt;/p&gt;" style="shape=rect;overflow=fill;html=1;whiteSpace=wrap;align=center;" vertex="1" parent="1">
          <mxGeometry x="2711" y="620" width="200" height="127.5" as="geometry" />
        </mxCell>
        <mxCell id="jiixLFprqPIUBCIlmw_A-62" value="" style="rounded=0;html=1;labelBackgroundColor=none;endArrow=none;elbow=vertical;startArrow=sysMLPackCont;startSize=12;exitX=0.5;exitY=1;exitDx=0;exitDy=0;entryX=0.5;entryY=0;entryDx=0;entryDy=0;edgeStyle=orthogonalEdgeStyle;" edge="1" parent="1" source="jiixLFprqPIUBCIlmw_A-57" target="jiixLFprqPIUBCIlmw_A-61">
          <mxGeometry relative="1" as="geometry">
            <mxPoint x="2799" y="539.5" as="sourcePoint" />
            <mxPoint x="2779" y="628.5" as="targetPoint" />
          </mxGeometry>
        </mxCell>
        <mxCell id="jiixLFprqPIUBCIlmw_A-63" value="&lt;p style=&quot;margin:0px;margin-top:4px;text-align:center;&quot;&gt;&amp;lt;&amp;lt;NF Req&amp;gt;&amp;gt;&lt;br&gt;&lt;b&gt;GUI&lt;/b&gt;&lt;/p&gt;&lt;hr&gt;&lt;p&gt;&lt;/p&gt;&lt;p style=&quot;margin:0px;margin-left:8px;text-align:left;&quot;&gt;&lt;b&gt;Text&amp;nbsp;&lt;/b&gt;= &quot;The system must have a graphical user interface&quot;&lt;br&gt;&lt;b&gt;Id&amp;nbsp; &amp;nbsp; &amp;nbsp;&lt;/b&gt;= &quot;1.0&quot;&lt;/p&gt;" style="shape=rect;overflow=fill;html=1;whiteSpace=wrap;align=center;" vertex="1" parent="1">
          <mxGeometry x="2963" y="620" width="200" height="127.5" as="geometry" />
        </mxCell>
        <mxCell id="jiixLFprqPIUBCIlmw_A-64" value="" style="rounded=0;html=1;labelBackgroundColor=none;endArrow=none;elbow=vertical;startArrow=sysMLPackCont;startSize=12;exitX=0.5;exitY=1;exitDx=0;exitDy=0;entryX=0.5;entryY=0;entryDx=0;entryDy=0;edgeStyle=orthogonalEdgeStyle;" edge="1" parent="1" source="jiixLFprqPIUBCIlmw_A-57" target="jiixLFprqPIUBCIlmw_A-63">
          <mxGeometry relative="1" as="geometry">
            <mxPoint x="2830" y="531" as="sourcePoint" />
            <mxPoint x="2934" y="620" as="targetPoint" />
          </mxGeometry>
        </mxCell>
        <mxCell id="jiixLFprqPIUBCIlmw_A-65" value="&amp;lt;&amp;lt; &lt;b&gt;Block &lt;/b&gt;&amp;gt;&amp;gt;&lt;div&gt;&lt;br&gt;&lt;b&gt;System designer&lt;/b&gt;&lt;/div&gt;" style="shape=rect;html=1;whiteSpace=wrap;align=center;verticalAlign=top;fillColor=#FFF2CC;" vertex="1" parent="1">
          <mxGeometry x="771" y="432.5" width="120" height="60" as="geometry" />
        </mxCell>
        <mxCell id="jiixLFprqPIUBCIlmw_A-66" value="&lt;font style=&quot;font-size: 12px;&quot;&gt;&lt;b&gt;&amp;lt;&amp;lt; Satisfy &amp;gt;&amp;gt;&lt;/b&gt;&lt;/font&gt;" style="edgeStyle=none;html=1;endArrow=open;endSize=12;dashed=1;verticalAlign=bottom;rounded=0;strokeWidth=2;" edge="1" parent="1" source="jiixLFprqPIUBCIlmw_A-65" target="jiixLFprqPIUBCIlmw_A-33">
          <mxGeometry width="160" relative="1" as="geometry">
            <mxPoint x="705" y="442.9999999999999" as="sourcePoint" />
            <mxPoint x="865" y="442.9999999999999" as="targetPoint" />
          </mxGeometry>
        </mxCell>
        <mxCell id="jiixLFprqPIUBCIlmw_A-67" value="&amp;lt;&amp;lt; &lt;b&gt;Block &lt;/b&gt;&amp;gt;&amp;gt;&lt;div&gt;&lt;br&gt;&lt;b&gt;Database administrator&lt;/b&gt;&lt;/div&gt;" style="shape=rect;html=1;whiteSpace=wrap;align=center;verticalAlign=top;fillColor=#FFF2CC;" vertex="1" parent="1">
          <mxGeometry x="961" y="1063" width="120" height="68" as="geometry" />
        </mxCell>
        <mxCell id="jiixLFprqPIUBCIlmw_A-68" value="&lt;font style=&quot;font-size: 12px;&quot;&gt;&lt;b&gt;&amp;lt;&amp;lt; Satisfy &amp;gt;&amp;gt;&lt;/b&gt;&lt;/font&gt;" style="edgeStyle=none;html=1;endArrow=open;endSize=12;dashed=1;verticalAlign=bottom;rounded=0;strokeWidth=2;" edge="1" source="jiixLFprqPIUBCIlmw_A-67" parent="1" target="jiixLFprqPIUBCIlmw_A-38">
          <mxGeometry x="-0.2485" y="1" width="160" relative="1" as="geometry">
            <mxPoint x="891" y="1017.4999999999999" as="sourcePoint" />
            <mxPoint x="833" y="1037.5" as="targetPoint" />
            <Array as="points" />
            <mxPoint as="offset" />
          </mxGeometry>
        </mxCell>
        <mxCell id="jiixLFprqPIUBCIlmw_A-69" value="&lt;font style=&quot;font-size: 12px;&quot;&gt;&lt;b&gt;&amp;lt;&amp;lt; Satisfy &amp;gt;&amp;gt;&lt;/b&gt;&lt;/font&gt;" style="edgeStyle=none;html=1;endArrow=open;endSize=12;dashed=1;verticalAlign=bottom;rounded=0;strokeWidth=2;" edge="1" parent="1" source="jiixLFprqPIUBCIlmw_A-67" target="jiixLFprqPIUBCIlmw_A-41">
          <mxGeometry x="-0.3572" y="-5" width="160" relative="1" as="geometry">
            <mxPoint x="1060.1100000000001" y="1060.5" as="sourcePoint" />
            <mxPoint x="1036.1100000000001" y="973.5" as="targetPoint" />
            <mxPoint as="offset" />
          </mxGeometry>
        </mxCell>
        <mxCell id="jiixLFprqPIUBCIlmw_A-70" value="&lt;font style=&quot;font-size: 12px;&quot;&gt;&lt;b&gt;&amp;lt;&amp;lt; Satisfy &amp;gt;&amp;gt;&lt;/b&gt;&lt;/font&gt;" style="edgeStyle=none;html=1;endArrow=open;endSize=12;dashed=1;verticalAlign=bottom;rounded=0;strokeWidth=2;" edge="1" parent="1" source="jiixLFprqPIUBCIlmw_A-67" target="jiixLFprqPIUBCIlmw_A-42">
          <mxGeometry x="0.2543" y="-5" width="160" relative="1" as="geometry">
            <mxPoint x="1084" y="1083.47" as="sourcePoint" />
            <mxPoint x="1320" y="973.47" as="targetPoint" />
            <Array as="points">
              <mxPoint x="1295" y="992" />
            </Array>
            <mxPoint as="offset" />
          </mxGeometry>
        </mxCell>
        <mxCell id="jiixLFprqPIUBCIlmw_A-71" value="&amp;lt;&amp;lt; &lt;b&gt;Block &lt;/b&gt;&amp;gt;&amp;gt;&lt;div&gt;&lt;br&gt;&lt;b&gt;System architect&lt;/b&gt;&lt;/div&gt;" style="shape=rect;html=1;whiteSpace=wrap;align=center;verticalAlign=top;fillColor=#FFF2CC;" vertex="1" parent="1">
          <mxGeometry x="1304" y="1054" width="120" height="68" as="geometry" />
        </mxCell>
        <mxCell id="jiixLFprqPIUBCIlmw_A-72" value="&lt;font style=&quot;font-size: 12px;&quot;&gt;&lt;b&gt;&amp;lt;&amp;lt; Satisfy &amp;gt;&amp;gt;&lt;/b&gt;&lt;/font&gt;" style="edgeStyle=none;html=1;endArrow=open;endSize=12;dashed=1;verticalAlign=bottom;rounded=0;strokeWidth=2;" edge="1" parent="1" source="jiixLFprqPIUBCIlmw_A-71" target="jiixLFprqPIUBCIlmw_A-43">
          <mxGeometry width="160" relative="1" as="geometry">
            <mxPoint x="1296" y="1084" as="sourcePoint" />
            <mxPoint x="1421" y="941" as="targetPoint" />
            <Array as="points">
              <mxPoint x="1521" y="1009" />
            </Array>
          </mxGeometry>
        </mxCell>
        <mxCell id="jiixLFprqPIUBCIlmw_A-73" value="&lt;font style=&quot;font-size: 12px;&quot;&gt;&lt;b&gt;&amp;lt;&amp;lt; Satisfy &amp;gt;&amp;gt;&lt;/b&gt;&lt;/font&gt;" style="edgeStyle=none;html=1;endArrow=open;endSize=12;dashed=1;verticalAlign=bottom;rounded=0;strokeWidth=2;" edge="1" parent="1" source="jiixLFprqPIUBCIlmw_A-71" target="jiixLFprqPIUBCIlmw_A-39">
          <mxGeometry x="-0.5168" y="1" width="160" relative="1" as="geometry">
            <mxPoint x="1404.33" y="1103.5" as="sourcePoint" />
            <mxPoint x="1481.33" y="955.5" as="targetPoint" />
            <Array as="points">
              <mxPoint x="1169" y="1020" />
            </Array>
            <mxPoint as="offset" />
          </mxGeometry>
        </mxCell>
        <mxCell id="jiixLFprqPIUBCIlmw_A-74" value="&lt;font style=&quot;font-size: 12px;&quot;&gt;&lt;b&gt;&amp;lt;&amp;lt; Satisfy &amp;gt;&amp;gt;&lt;/b&gt;&lt;/font&gt;" style="edgeStyle=none;html=1;endArrow=open;endSize=12;dashed=1;verticalAlign=bottom;rounded=0;strokeWidth=2;" edge="1" parent="1" source="jiixLFprqPIUBCIlmw_A-71" target="jiixLFprqPIUBCIlmw_A-52">
          <mxGeometry x="0.0206" y="-7" width="160" relative="1" as="geometry">
            <mxPoint x="1589" y="1066" as="sourcePoint" />
            <mxPoint x="1749" y="1066" as="targetPoint" />
            <Array as="points">
              <mxPoint x="1667" y="1057" />
            </Array>
            <mxPoint as="offset" />
          </mxGeometry>
        </mxCell>
        <mxCell id="jiixLFprqPIUBCIlmw_A-75" value="&lt;font style=&quot;font-size: 12px;&quot;&gt;&lt;b&gt;&amp;lt;&amp;lt; Satisfy &amp;gt;&amp;gt;&lt;/b&gt;&lt;/font&gt;" style="edgeStyle=none;html=1;endArrow=open;endSize=12;dashed=1;verticalAlign=bottom;rounded=0;strokeWidth=2;" edge="1" parent="1" source="jiixLFprqPIUBCIlmw_A-71" target="jiixLFprqPIUBCIlmw_A-55">
          <mxGeometry x="0.056" y="-11" width="160" relative="1" as="geometry">
            <mxPoint x="1865" y="1074" as="sourcePoint" />
            <mxPoint x="2025" y="1074" as="targetPoint" />
            <Array as="points">
              <mxPoint x="2030" y="1077" />
            </Array>
            <mxPoint as="offset" />
          </mxGeometry>
        </mxCell>
        <mxCell id="jiixLFprqPIUBCIlmw_A-76" value="&lt;font style=&quot;font-size: 12px;&quot;&gt;&lt;b&gt;&amp;lt;&amp;lt; Satisfy &amp;gt;&amp;gt;&lt;/b&gt;&lt;/font&gt;" style="edgeStyle=none;html=1;endArrow=open;endSize=12;dashed=1;verticalAlign=bottom;rounded=0;strokeWidth=2;" edge="1" parent="1" source="jiixLFprqPIUBCIlmw_A-71" target="jiixLFprqPIUBCIlmw_A-56">
          <mxGeometry x="0.0206" y="-7" width="160" relative="1" as="geometry">
            <mxPoint x="1872" y="1229" as="sourcePoint" />
            <mxPoint x="2256" y="1095" as="targetPoint" />
            <Array as="points">
              <mxPoint x="2106" y="1144" />
            </Array>
            <mxPoint as="offset" />
          </mxGeometry>
        </mxCell>
        <mxCell id="jiixLFprqPIUBCIlmw_A-77" value="&amp;lt;&amp;lt; &lt;b&gt;Block &lt;/b&gt;&amp;gt;&amp;gt;&lt;div&gt;&lt;br&gt;&lt;b&gt;Interface designer&lt;/b&gt;&lt;/div&gt;" style="shape=rect;html=1;whiteSpace=wrap;align=center;verticalAlign=top;fillColor=#FFF2CC;" vertex="1" parent="1">
          <mxGeometry x="3007" y="852" width="120" height="68" as="geometry" />
        </mxCell>
        <mxCell id="jiixLFprqPIUBCIlmw_A-78" value="&lt;font style=&quot;font-size: 12px;&quot;&gt;&lt;b&gt;&amp;lt;&amp;lt; Satisfy &amp;gt;&amp;gt;&lt;/b&gt;&lt;/font&gt;" style="edgeStyle=none;html=1;endArrow=open;endSize=12;dashed=1;verticalAlign=bottom;rounded=0;strokeWidth=2;" edge="1" parent="1" source="jiixLFprqPIUBCIlmw_A-77" target="jiixLFprqPIUBCIlmw_A-63">
          <mxGeometry width="160" relative="1" as="geometry">
            <mxPoint x="2874" y="755.9999999999999" as="sourcePoint" />
            <mxPoint x="3034" y="755.9999999999999" as="targetPoint" />
          </mxGeometry>
        </mxCell>
        <mxCell id="jiixLFprqPIUBCIlmw_A-79" value="&amp;lt;&amp;lt; &lt;b&gt;Block &lt;/b&gt;&amp;gt;&amp;gt;&lt;div&gt;&lt;br&gt;&lt;b&gt;Settings controller&lt;/b&gt;&lt;/div&gt;" style="shape=rect;html=1;whiteSpace=wrap;align=center;verticalAlign=top;fillColor=#FFF2CC;" vertex="1" parent="1">
          <mxGeometry x="2510" y="852" width="120" height="68" as="geometry" />
        </mxCell>
        <mxCell id="jiixLFprqPIUBCIlmw_A-80" value="&lt;font style=&quot;font-size: 12px;&quot;&gt;&lt;b&gt;&amp;lt;&amp;lt; Satisfy &amp;gt;&amp;gt;&lt;/b&gt;&lt;/font&gt;" style="edgeStyle=none;html=1;endArrow=open;endSize=12;dashed=1;verticalAlign=bottom;rounded=0;strokeWidth=2;" edge="1" parent="1" source="jiixLFprqPIUBCIlmw_A-82" target="jiixLFprqPIUBCIlmw_A-61">
          <mxGeometry width="160" relative="1" as="geometry">
            <mxPoint x="3076" y="862" as="sourcePoint" />
            <mxPoint x="3074" y="758" as="targetPoint" />
          </mxGeometry>
        </mxCell>
        <mxCell id="jiixLFprqPIUBCIlmw_A-81" value="&lt;font style=&quot;font-size: 12px;&quot;&gt;&lt;b&gt;&amp;lt;&amp;lt; Satisfy &amp;gt;&amp;gt;&lt;/b&gt;&lt;/font&gt;" style="edgeStyle=none;html=1;endArrow=open;endSize=12;dashed=1;verticalAlign=bottom;rounded=0;strokeWidth=2;" edge="1" parent="1" source="jiixLFprqPIUBCIlmw_A-79" target="jiixLFprqPIUBCIlmw_A-58">
          <mxGeometry width="160" relative="1" as="geometry">
            <mxPoint x="2784.87" y="852" as="sourcePoint" />
            <mxPoint x="2757.87" y="753" as="targetPoint" />
          </mxGeometry>
        </mxCell>
        <mxCell id="jiixLFprqPIUBCIlmw_A-82" value="&amp;lt;&amp;lt; &lt;b&gt;Block &lt;/b&gt;&amp;gt;&amp;gt;&lt;div&gt;&lt;br&gt;&lt;b&gt;Help controller&lt;/b&gt;&lt;/div&gt;" style="shape=rect;html=1;whiteSpace=wrap;align=center;verticalAlign=top;fillColor=#FFF2CC;" vertex="1" parent="1">
          <mxGeometry x="2751" y="852" width="120" height="68" as="geometry" />
        </mxCell>
        <mxCell id="jiixLFprqPIUBCIlmw_A-83" value="&lt;span style=&quot;background-color: initial;&quot;&gt;&lt;b&gt;&amp;lt;&amp;lt; Problem &amp;gt;&amp;gt;&lt;/b&gt;&lt;/span&gt;&lt;div&gt;&lt;div style=&quot;font-weight: bold; text-align: left;&quot;&gt;&lt;br&gt;&lt;/div&gt;&lt;div style=&quot;&quot;&gt;Modularization can increase &lt;br&gt;the response time due to extra communication steps&lt;/div&gt;&lt;/div&gt;" style="shape=note;size=15;align=center;spacingLeft=0;html=1;whiteSpace=wrap;verticalAlign=top;strokeWidth=2;" vertex="1" parent="1">
          <mxGeometry x="404" y="789" width="173" height="87" as="geometry" />
        </mxCell>
        <mxCell id="jiixLFprqPIUBCIlmw_A-84" style="rounded=0;orthogonalLoop=1;jettySize=auto;html=1;endArrow=none;endFill=0;strokeWidth=2;dashed=1;" edge="1" parent="1" source="jiixLFprqPIUBCIlmw_A-83" target="jiixLFprqPIUBCIlmw_A-40">
          <mxGeometry relative="1" as="geometry">
            <mxPoint x="628" y="616" as="sourcePoint" />
            <mxPoint x="628" y="545" as="targetPoint" />
          </mxGeometry>
        </mxCell>
        <mxCell id="jiixLFprqPIUBCIlmw_A-85" style="rounded=0;orthogonalLoop=1;jettySize=auto;html=1;endArrow=none;endFill=0;strokeWidth=2;dashed=1;" edge="1" parent="1" source="jiixLFprqPIUBCIlmw_A-83" target="jiixLFprqPIUBCIlmw_A-34">
          <mxGeometry relative="1" as="geometry">
            <mxPoint x="-53" y="799" as="sourcePoint" />
            <mxPoint x="831" y="620" as="targetPoint" />
          </mxGeometry>
        </mxCell>
      </root>
    </mxGraphModel>
  </diagram>
</mxfile>
